<?xml version="1.0" encoding="UTF-8"?>
<svg id="Layer_1" xmlns="http://www.w3.org/2000/svg" xmlns:xlink="http://www.w3.org/1999/xlink" version="1.1" viewBox="0 0 747.13 231.71">
  <!-- Generator: Adobe Illustrator 30.5.1, SVG Export Plug-In . SVG Version: 2.1.4 Build 3)  -->
  <defs>
    <style>
      .st0 {
        fill: url(#linear-gradient2);
      }

      .st1 {
        fill: url(#linear-gradient1);
      }

      .st2 {
        fill: url(#linear-gradient3);
      }

      .st3 {
        fill: url(#linear-gradient4);
      }

      .st4 {
        fill: url(#linear-gradient);
      }
    </style>
    <linearGradient id="linear-gradient" x1="104.97" y1="4.28" x2="104.97" y2="218.45" gradientUnits="userSpaceOnUse">
      <stop offset="0" stop-color="#fe725c"/>
      <stop offset="1" stop-color="#fc4547"/>
    </linearGradient>
    <linearGradient id="linear-gradient1" x1="7.27" y1="4.28" x2="7.27" y2="218.45" xlink:href="#linear-gradient"/>
    <linearGradient id="linear-gradient2" x1="49.53" y1="4.28" x2="49.53" y2="218.45" xlink:href="#linear-gradient"/>
    <linearGradient id="linear-gradient3" x1="202.67" y1="4.28" x2="202.67" y2="218.45" xlink:href="#linear-gradient"/>
    <linearGradient id="linear-gradient4" x1="160.41" y1="4.28" x2="160.41" y2="218.45" xlink:href="#linear-gradient"/>
  </defs>
  <g>
    <polygon points="283.42 70.36 327.41 70.36 327.41 182.22 352.05 182.22 352.05 70.36 396.04 70.36 396.04 49.5 283.42 49.5 283.42 70.36"/>
    <path d="M497.52,138.75c.65-.26,1.3-.54,1.93-.81,8.41-3.72,14.89-9.09,19.45-16.11,3.33-5.15,5.45-11.04,6.33-17.67.31-2.32.47-4.73.5-7.23v-.22c0-14.78-5.04-26.34-15.09-34.69-10.05-8.34-23.92-12.51-41.62-12.51h-54.4v132.71h24.65v-111.86h28.82c10.86,0,19.05,2.27,24.54,6.82,5.5,4.55,8.27,11.06,8.27,19.52,0,8.02-2.54,14.33-7.62,18.96-.21.2-.42.39-.64.58-5.49,4.68-13.68,7.02-24.54,7.02h-18.55v20.28h19.68c1.77,0,3.51-.04,5.19-.13l27.04,38.81h26.54l-30.46-43.46Z"/>
    <rect x="553.2" y="49.5" width="24.64" height="26.38"/>
    <polygon points="553.29 75.89 553.2 75.94 553.2 75.89 553.29 75.89"/>
    <rect x="553.19" y="86.21" width="24.65" height="96.01"/>
    <path d="M741.83,88.65c-3.54-8.27-8.53-15.47-14.97-21.61-6.46-6.12-14-10.9-22.65-14.31-8.66-3.42-18.18-5.12-28.54-5.12s-19.71,1.7-28.44,5.12c-8.71,3.41-16.3,8.19-22.74,14.31-6.46,6.14-11.45,13.35-14.99,21.61-3.54,8.28-5.31,17.36-5.31,27.21s1.77,18.93,5.31,27.21c3.54,8.28,8.53,15.48,14.99,21.61,6.44,6.13,14.03,10.9,22.74,14.3,8.72,3.42,18.26,5.12,28.62,5.12s19.7-1.7,28.36-5.12c8.65-3.41,16.19-8.15,22.65-14.21,6.44-6.06,11.44-13.27,14.97-21.61,3.54-8.34,5.31-17.44,5.31-27.3s-1.77-18.93-5.31-27.21ZM718.8,134.54c-2.34,5.62-5.61,10.55-9.77,14.79-4.17,4.23-9.1,7.48-14.79,9.76-5.67,2.28-11.88,3.41-18.58,3.41s-12.89-1.13-18.56-3.41c-5.71-2.28-10.64-5.53-14.79-9.76-4.18-4.24-7.44-9.2-9.77-14.89-2.34-5.69-3.51-11.87-3.51-18.58s1.17-13.05,3.51-18.67c2.33-5.63,5.62-10.56,9.85-14.79,4.23-4.23,9.17-7.49,14.79-9.77,5.62-2.27,11.79-3.41,18.48-3.41s12.9,1.14,18.58,3.41c5.69,2.28,10.62,5.54,14.79,9.77,4.17,4.23,7.43,9.16,9.77,14.79,2.33,5.62,3.5,11.84,3.5,18.67s-1.17,13.06-3.5,18.68Z"/>
  </g>
  <g>
    <path class="st4" d="M125.41,7.26v133.01c0,2.6-1.39,4.99-3.63,6.29l-19.09,11.02c-2.25,1.3-3.63,3.7-3.63,6.29v60.57c0,4.01-3.25,7.26-7.26,7.26h-.01c-4.01,0-7.26-3.25-7.26-7.26V91.31c0-2.6,1.39-4.99,3.63-6.29l19.09-11.02c2.25-1.3,3.63-3.7,3.63-6.29V7.26C110.87,3.25,114.13,0,118.14,0h.01c4.01,0,7.26,3.25,7.26,7.26Z"/>
    <rect class="st1" x="0" y="60.88" width="14.54" height="109.94" rx="7.26" ry="7.26"/>
    <path class="st0" d="M69.97,37.71v156.29c0,4.01-3.25,7.26-7.26,7.26h-26.36c-4.01,0-7.26-3.25-7.26-7.26v-70.72c0-2.6,1.39-4.99,3.63-6.29l19.09-11.02c2.25-1.3,3.63-3.7,3.63-6.29v-61.98c0-4.01,3.25-7.26,7.26-7.26h0c4.01,0,7.26,3.25,7.26,7.26Z"/>
    <rect class="st2" x="195.4" y="60.88" width="14.54" height="109.94" rx="7.26" ry="7.26"/>
    <path class="st3" d="M180.86,37.71v70.57c0,2.6-1.39,4.99-3.63,6.29l-19.09,11.02c-2.25,1.3-3.63,3.7-3.63,6.29v62.12c0,4.01-3.25,7.26-7.26,7.26h-.01c-4.01,0-7.26-3.25-7.26-7.26V37.71c0-4.01,3.25-7.26,7.26-7.26h26.37c4.01,0,7.26,3.25,7.26,7.26Z"/>
  </g>
</svg>